<svg width="24" height="24" viewBox="0 0 24 24" fill="none" xmlns="http://www.w3.org/2000/svg">
<path opacity="0.4" d="M8.875 5.75002C8.875 5.44668 9.05773 5.1732 9.33799 5.05711C9.61824 4.94103 9.94083 5.00519 10.1553 5.21969L16.4053 11.4697C16.6982 11.7626 16.6982 12.2375 16.4053 12.5304L10.1553 18.7804C9.94083 18.9949 9.61824 19.059 9.33799 18.9429C9.05773 18.8268 8.875 18.5534 8.875 18.25V5.75002Z" fill="#323544"/>
<path d="M10.0703 5.14648C9.86104 4.99199 9.58317 4.95507 9.33789 5.05664C9.05763 5.17273 8.875 5.44665 8.875 5.75V18.25C8.875 18.5533 9.05763 18.8273 9.33789 18.9434C9.61813 19.0594 9.94079 18.9948 10.1553 18.7803L16.4053 12.5303C16.6982 12.2374 16.6982 11.7626 16.4053 11.4697L10.1553 5.21973L10.0703 5.14648ZM14.8145 12L10.375 16.4395V7.56055L14.8145 12Z" fill="#323544"/>
</svg>
